<?xml version="1.0" encoding="UTF-8"?>
<!DOCTYPE svg PUBLIC "-//W3C//DTD SVG 1.1//EN" "http://www.w3.org/Graphics/SVG/1.1/DTD/svg11.dtd">
<!-- Creator: CorelDRAW 2020 -->
<svg xmlns="http://www.w3.org/2000/svg" xml:space="preserve" width="50" height="50" version="1.1" style="shape-rendering:geometricPrecision; text-rendering:geometricPrecision; image-rendering:optimizeQuality; fill-rule:evenodd; clip-rule:evenodd"
viewBox="0 0 1872.2 1872.2"
 xmlns:xlink="http://www.w3.org/1999/xlink"
 xmlns:xodm="http://www.corel.com/coreldraw/odm/2003">
 <defs>
  <style type="text/css">
   <![CDATA[
    .fil0 {fill:none}
    .fil1 {fill:black}
    .fil2 {fill:#FEFEFE}
   ]]>
  </style>
 </defs>
 <g id="Layer_x0020_1">
  <metadata id="CorelCorpID_0Corel-Layer"/>
  <g id="_-1306760704">
   <rect class="fil0" x="-0" y="-0" width="1872.2" height="1872.2"/>
   <g>
    <path class="fil1" d="M178.19 1600.11l0 16.77c26.83,36.89 23.47,30.18 103.96,6.71 36.89,-10.06 80.49,-23.47 114.02,-30.18 10.06,30.18 30.18,120.73 43.6,157.62 6.71,30.18 10.06,30.18 23.47,43.6l23.48 0c10.06,-10.06 13.41,-6.71 20.12,-20.12 6.71,-10.06 10.06,-16.77 13.41,-26.83 36.89,-57.01 191.15,-332.01 201.22,-342.06 107.31,83.84 167.68,-6.71 214.63,-6.71 26.83,0 36.89,10.06 53.66,20.12 53.66,36.89 114.02,23.47 160.97,-13.41 6.71,6.71 147.56,254.87 174.39,295.12 16.77,33.54 30.18,70.42 60.36,93.9l23.48 0c13.41,-13.42 16.77,-13.42 23.47,-43.6 13.41,-36.89 33.54,-127.44 43.6,-157.62 33.54,6.71 77.13,20.12 114.02,30.18 80.49,23.47 77.13,30.18 103.96,-6.71l0 -16.77c-13.41,-16.77 -23.47,-36.89 -33.54,-57.01l-191.15 -332.01c-10.06,-16.77 -23.47,-40.24 -33.54,-53.66 33.54,-33.54 36.89,-16.77 77.13,-40.24 23.47,-13.42 43.6,-40.24 53.66,-70.43 33.53,-87.19 -46.95,-117.37 13.41,-184.45 23.47,-20.12 36.89,-30.18 46.95,-73.78 13.42,-50.3 -6.71,-100.61 -43.6,-130.79 -53.66,-46.95 -10.06,-90.54 -6.71,-130.79 3.35,-73.78 -43.6,-124.08 -100.61,-140.85 -83.84,-26.83 -33.53,-90.54 -87.19,-150.91 -67.07,-83.84 -130.79,-26.83 -177.74,-53.66 -30.18,-16.77 -33.54,-43.6 -53.66,-67.07 -33.54,-30.18 -63.72,-30.18 -80.49,-36.89l-33.54 0c-20.12,10.06 -33.54,6.71 -53.66,23.47 -50.3,30.18 -60.36,26.83 -107.31,-3.35 -20.12,-13.42 -33.54,-10.06 -53.66,-20.12l-33.54 0c-13.41,6.71 -30.18,6.71 -43.6,16.77 -60.37,26.83 -50.31,67.07 -90.55,90.55 -30.18,13.41 -67.07,-6.71 -107.31,6.71 -33.54,6.71 -57.01,26.83 -73.78,43.6 -20.12,30.18 -23.47,50.3 -30.18,90.55 -3.35,40.24 -23.47,50.3 -60.37,60.36 -53.66,20.12 -100.61,70.43 -93.9,144.21 3.35,36.89 30.18,57.01 16.77,97.25 -13.42,30.18 -93.9,67.07 -67.07,167.68 10.06,40.24 26.83,46.95 46.95,70.42 60.37,63.72 -20.12,97.25 13.41,184.45 10.06,30.18 33.54,53.66 53.66,67.07 33.54,20.12 50.3,10.06 77.13,40.24l-67.07 110.67c-23.47,46.95 -167.68,295.12 -191.15,332zm617.06 -1452.1c-50.3,13.42 -43.6,53.66 -83.84,80.49 -83.84,63.72 -130.79,-13.42 -181.09,53.66 -20.12,30.18 3.35,120.73 -90.55,160.97 -20.12,6.71 -87.19,20.12 -77.13,83.84 6.71,36.89 53.66,103.96 -33.53,181.1 -13.42,13.41 -26.83,33.53 -20.12,63.72 6.71,43.6 46.95,40.24 67.07,100.61 23.47,70.43 -16.77,90.55 -13.42,137.5 6.71,60.36 63.72,57.01 93.9,73.78 30.18,20.12 57.01,53.66 60.37,103.96 6.71,57.01 33.54,83.84 90.55,73.78 107.31,-13.41 140.85,77.13 154.26,93.9 46.95,46.95 103.96,-6.71 120.73,-13.42 46.95,-20.12 93.9,-13.41 134.14,13.42 40.24,30.18 80.49,23.47 107.31,-23.47 13.42,-20.12 20.12,-30.18 40.24,-43.6 77.13,-60.37 144.21,16.77 181.09,-60.37 13.42,-26.83 0,-120.73 97.26,-154.26 23.47,-10.06 36.89,-10.06 50.3,-30.18 13.41,-13.42 20.12,-36.89 13.41,-63.72 -16.77,-50.3 -26.83,-83.84 3.35,-130.79 13.41,-26.83 23.47,-26.83 40.24,-43.6 46.95,-60.36 -23.48,-107.31 -26.83,-114.02 -10.06,-13.41 -23.47,-33.54 -30.18,-53.66 -16.77,-67.07 23.47,-97.25 13.41,-137.5 -20.12,-80.49 -137.5,-23.48 -154.26,-184.45 0,-26.83 -13.42,-40.24 -30.18,-50.3 -43.6,-33.54 -107.31,26.83 -181.09,-53.66 -23.47,-26.83 -36.89,-80.49 -97.25,-63.72 -30.18,6.71 -57.01,46.95 -127.44,36.89 -53.66,-6.71 -73.78,-50.3 -120.73,-36.89zm402.43 1197.23c3.35,16.77 77.13,140.85 90.55,164.33l70.43 120.73c10.06,20.12 16.77,30.18 26.83,40.24 6.71,-30.18 30.18,-130.79 46.95,-144.21 23.47,-16.77 124.08,20.12 154.26,26.83l-174.39 -305.18c-3.35,6.71 -10.06,16.77 -13.41,23.47 -16.77,23.47 -40.24,43.6 -67.07,53.66 -53.66,16.77 -97.25,-13.42 -134.14,20.12zm-915.53 207.92c33.54,-3.35 130.79,-43.6 157.62,-30.18 16.77,13.41 40.24,117.37 46.95,147.56l46.95 -80.49c23.47,-33.54 137.5,-234.75 140.85,-244.81 -46.95,-43.6 -134.14,26.83 -201.22,-70.43 -3.35,-10.06 -10.06,-20.12 -13.41,-26.83l-177.74 305.18z"/>
    <path class="fil1" d="M899.21 292.21c-221.34,16.77 -395.72,184.45 -425.9,395.72 -40.24,251.52 124.08,446.03 295.12,509.74 30.18,10.06 60.37,-6.71 50.3,-36.89 -10.06,-40.24 -177.74,-50.3 -258.22,-254.87 -20.12,-53.66 -30.18,-114.02 -26.83,-177.74 16.77,-214.63 207.92,-392.37 442.67,-368.89 211.28,20.12 389.02,211.28 358.83,452.73 -33.54,261.58 -261.58,318.59 -278.35,338.71 -16.77,23.47 3.35,53.66 33.54,50.3 16.77,0 60.37,-23.48 73.78,-30.18 191.15,-103.96 288.41,-342.06 217.98,-553.34 -33.54,-107.31 -100.61,-191.15 -171.03,-238.1 -87.19,-57.01 -181.09,-97.25 -311.89,-87.19z"/>
    <path class="fil1" d="M845.55 640.99c-26.83,0 -167.68,-3.35 -184.45,6.71 -13.41,6.71 -23.47,26.83 -10.06,43.6 10.06,16.77 117.37,87.19 144.2,114.02 -3.35,30.18 -23.47,77.13 -30.18,107.32 -13.41,30.18 -40.24,87.19 3.35,97.25 23.47,6.71 57.01,-23.47 87.19,-43.6 20.12,-16.77 60.36,-50.3 80.49,-60.37l120.73 87.19c13.42,10.06 26.83,23.47 46.95,16.77 57.01,-13.41 -13.42,-120.73 -26.83,-204.57 16.77,-16.77 50.3,-40.24 70.42,-57.01 13.42,-6.71 70.43,-46.95 73.78,-57.01 10.06,-13.41 6.71,-33.54 -6.71,-43.6 -20.12,-13.42 -171.03,0 -187.8,-6.71 -10.06,-3.35 -33.54,-90.55 -36.89,-100.61 -6.71,-16.77 -13.41,-33.54 -16.77,-50.3 -16.77,-50.3 -57.01,-46.95 -73.78,-3.35l-40.24 130.79c-3.35,13.42 -3.35,20.12 -13.41,23.48zm-63.72 67.07c16.77,16.77 73.78,53.66 83.84,63.72 13.41,23.47 -16.77,90.54 -23.48,117.37 23.48,-10.06 70.43,-57.01 93.9,-57.01 23.47,0 70.42,46.95 93.9,57.01 -6.71,-26.83 -36.89,-93.9 -23.48,-117.37 10.06,-13.42 67.07,-46.95 83.84,-63.72 -30.18,0 -100.61,10.06 -117.38,-13.42 -20.12,-20.12 -20.12,-67.07 -36.89,-93.9 -16.77,26.83 -16.77,73.78 -36.89,93.9 -16.77,23.47 -87.19,13.42 -117.38,13.42z"/>
    <path class="fil2" d="M1043.41 77.58l-214.63 0c20.12,10.06 33.54,6.71 53.66,20.12 46.95,30.18 57.01,33.53 107.31,3.35 20.12,-16.77 33.54,-13.41 53.66,-23.47z"/>
    <path class="fil1" d="M929.39 1164.14c-50.3,16.77 -20.12,77.13 16.77,63.72 40.24,-16.77 23.47,-77.13 -16.77,-63.72z"/>
   </g>
  </g>
 </g>
</svg>
