<?xml version="1.0" encoding="UTF-8"?>
<!DOCTYPE svg PUBLIC "-//W3C//DTD SVG 1.1//EN" "http://www.w3.org/Graphics/SVG/1.1/DTD/svg11.dtd">
<!-- Creator: CorelDRAW 2020 -->
<svg xmlns="http://www.w3.org/2000/svg" xml:space="preserve" width="50" height="50" version="1.1" style="shape-rendering:geometricPrecision; text-rendering:geometricPrecision; image-rendering:optimizeQuality; fill-rule:evenodd; clip-rule:evenodd"
viewBox="0 0 4239.05 4239.05"
 xmlns:xlink="http://www.w3.org/1999/xlink"
 xmlns:xodm="http://www.corel.com/coreldraw/odm/2003">
 <defs>
  <style type="text/css">
   <![CDATA[
    .fil0 {fill:none}
    .fil1 {fill:black}
    .fil2 {fill:white}
   ]]>
  </style>
 </defs>
 <g id="Layer_x0020_1">
  <metadata id="CorelCorpID_0Corel-Layer"/>
  <g id="_1738358168">
   <rect class="fil0" x="-0" y="-0" width="4239.05" height="4239.05"/>
   <g>
    <path class="fil1" d="M1315.4 1166.49c8.51,-51.06 -17.02,-212.73 119.13,-246.77 59.57,-17.02 987.07,-8.51 1097.69,-8.51 102.11,0 263.79,-25.52 331.86,34.04 85.09,59.57 59.57,195.71 59.57,314.84 0,246.77 8.51,493.54 0,740.3 -110.62,-42.55 -161.68,-34.04 -289.31,-34.04 -161.68,0 -901.98,-8.51 -953.03,17.02l-8.51 51.05c68.08,25.53 927.51,8.51 1114.71,8.51 153.17,0 136.15,102.11 136.15,238.26l-1599.74 0c0,-76.58 -17.02,-161.68 34.04,-204.23 51.05,-51.05 136.15,-17.02 204.22,-42.55l8.51 -51.05c-85.09,-34.04 -178.7,-8.51 -246.77,17.02l0 -587.14c0,-68.07 17.02,-153.17 -68.08,-119.13 -17.02,34.04 -8.51,85.09 -8.51,127.64 -68.08,-17.02 -204.23,-25.52 -280.81,-8.51 -85.09,25.52 -102.11,85.09 -102.11,187.2 0,195.71 0,391.43 0,587.14 0,204.23 8.51,348.88 119.13,468.01 76.58,102.11 195.71,195.71 374.41,212.73 -42.55,187.2 -187.2,425.46 -127.64,502.05 34.04,42.54 119.13,42.54 187.21,34.04 59.57,-17.02 144.65,-195.71 187.2,-255.28 51.05,-85.09 110.62,-204.22 161.68,-280.8l714.77 0 161.68 280.8c42.54,59.57 127.64,238.26 187.2,255.28 68.07,8.51 153.17,8.51 187.2,-34.04 42.55,-51.06 8.51,-110.62 -17.02,-170.19 -34.04,-93.6 -93.6,-246.76 -110.62,-331.86 212.73,-17.02 365.9,-161.68 442.48,-306.33 51.05,-102.11 51.05,-195.71 51.05,-323.35 0,-85.09 17.02,-306.33 -8.51,-365.9 -93.61,-25.53 -68.08,85.09 -68.08,272.3 0,119.13 8.51,229.75 -25.53,340.37 -59.56,153.17 -212.73,297.82 -425.46,306.33 -229.75,17.02 -493.54,0 -731.8,0 -238.26,0 -502.05,17.02 -731.8,0 -212.73,-8.51 -365.9,-144.65 -416.95,-306.33 -59.57,-144.66 -34.04,-655.21 -34.04,-876.45 0,-68.08 0,-119.13 68.07,-119.13 255.28,-25.53 238.26,25.53 238.26,127.64l0 638.2c0,92.02 -5.75,164.47 85.09,221.24 59.57,34.04 170.18,25.53 246.77,25.53l1080.68 0c76.58,0 187.2,8.51 246.77,-25.53 93.88,-46.94 93.6,-100.99 93.6,-212.73 0,-25.52 0,-68.07 0,-93.6l0 -544.59c0,-144.66 -8.51,-144.66 221.24,-144.66 153.17,8.51 59.56,178.7 102.11,272.3 76.58,17.02 59.57,-42.55 59.57,-119.13 0,-68.07 0,-127.64 -25.53,-178.69 -59.57,-68.08 -255.27,-51.06 -357.39,-34.04 0,-110.62 0,-229.74 0,-340.37 0,-119.13 -51.05,-187.2 -127.64,-221.24 -85.09,-42.55 -544.59,-25.53 -672.23,-25.53 -229.75,0 -459.5,0 -689.25,0 -119.13,0 -187.2,34.04 -229.75,119.13 -34.04,51.05 -85.09,263.79 34.04,212.73zm-25.53 2161.35l110.62 0c25.52,-34.04 263.79,-425.46 272.29,-459.5l-229.75 0c-25.52,42.55 -153.17,416.95 -153.17,459.5z"/>
    <path class="fil1" d="M2013.16 4178.76c306.33,25.53 621.17,-42.54 876.45,-144.65 187.2,-68.07 331.86,-170.18 485.02,-280.8 68.08,-51.06 212.73,-187.21 272.3,-246.77 204.23,-212.73 382.92,-544.59 459.5,-833.91 17.02,-68.07 34.04,-136.15 42.55,-212.73 17.02,-51.05 17.02,-187.2 34.04,-229.75l0 -246.77 -8.51 -17.02c-8.51,-59.57 8.51,42.55 0,-17.02 -25.53,-144.66 -8.51,-161.68 -76.58,-399.93 -34.04,-136.15 -85.09,-255.28 -144.66,-365.9 -59.57,-119.13 -127.64,-221.24 -195.71,-314.84 -110.62,-144.65 -238.26,-272.29 -382.92,-382.92 -51.05,-42.54 -93.6,-68.07 -144.65,-110.62 -102.11,-59.57 -221.24,-119.13 -340.37,-170.18 -246.77,-102.11 -561.61,-170.18 -859.43,-144.65 -655.21,25.52 -1208.31,357.39 -1582.72,850.92 -25.52,34.04 -42.54,68.08 8.51,93.6 51.05,17.02 76.58,-34.04 102.11,-68.07 85.09,-127.64 238.26,-272.3 365.89,-365.9 1072.16,-833.91 2680.41,-331.86 3071.84,995.58 348.88,1191.3 -476.52,2391.1 -1693.34,2501.72 -323.35,34.04 -638.19,-17.02 -936.02,-136.15 -85.09,-34.04 -221.24,-119.13 -255.27,-102.11 -34.04,42.54 -34.04,76.58 8.51,102.11 272.3,144.66 578.63,238.26 893.47,246.77z"/>
    <path class="fil2" d="M2915.13 2357.78l-1582.72 0c34.04,93.6 204.22,68.07 357.39,68.07l1072.16 0c85.09,0 136.15,0 153.17,-68.07z"/>
    <path class="fil2" d="M2957.68 3327.83c0,-42.55 -127.64,-416.95 -153.17,-459.5l-229.75 0c0,34.04 195.71,340.37 229.75,399.93 42.55,68.07 42.55,68.07 153.17,59.57z"/>
    <path class="fil1" d="M421.93 1030.34c-51.06,-93.6 -25.53,-425.46 -144.66,-323.35 -34.04,34.04 0,153.17 8.51,204.22 34.04,170.18 34.04,246.77 255.27,212.73 42.55,-8.51 178.7,-25.53 204.23,-42.55 34.04,-17.02 34.04,-59.57 8.51,-76.58 -51.05,-42.55 -229.75,42.55 -331.86,25.53z"/>
    <path class="fil1" d="M1579.18 1277.11c17.02,59.57 85.09,110.62 170.18,85.09 99.2,-38.58 94.89,-152.12 40.23,-211.15 -81.25,-87.74 -248.74,-1.68 -210.42,126.06zm151.39 -90.95c-37.85,-14.85 -72.47,19.83 -77.04,55.59 -4.86,37.92 31.84,61.64 74.43,35.51 36.65,-22.49 44.53,-74.66 2.61,-91.1z"/>
    <path class="fil1" d="M2081.23 1123.94c-161.67,59.57 -68.08,289.31 85.09,238.26 161.68,-59.57 68.08,-297.83 -85.09,-238.26zm-8.51 102.11c-8.51,42.54 34.04,76.58 76.58,59.56 34.04,-17.02 25.53,-59.56 8.51,-76.58 -25.53,-25.53 -76.58,-17.02 -85.09,17.02z"/>
    <path class="fil1" d="M2506.69 1123.94c-161.68,59.57 -68.08,297.82 93.6,238.26 51.05,-25.53 85.09,-93.61 68.07,-161.68 -17.02,-59.57 -85.09,-102.11 -161.67,-76.58zm41 70.84c27.2,0 49.25,22.05 49.25,49.25 0,27.2 -22.05,49.25 -49.25,49.25 -27.2,0 -49.25,-22.05 -49.25,-49.25 0,-27.2 22.05,-49.25 49.25,-49.25z"/>
    <path class="fil1" d="M1672.78 1549.4c-161.67,34.04 -110.62,272.3 59.57,246.77 59.57,-17.02 110.62,-85.09 93.6,-161.68 -17.02,-51.05 -85.09,-102.11 -153.17,-85.09zm76.58 102.11c-24.8,-74.42 -110.62,-25.52 -93.6,25.53 8.51,51.05 123.2,63.27 93.6,-25.53z"/>
    <path class="fil1" d="M2098.25 1549.4c-170.18,34.04 -110.62,280.8 51.05,238.26 161.68,-25.52 110.62,-280.8 -51.05,-238.26zm8.51 76.58c-68.08,25.52 -17.02,110.62 34.04,85.09 59.57,-17.02 25.52,-110.62 -34.04,-85.09z"/>
    <path class="fil1" d="M2523.71 1549.4c-170.18,34.04 -110.62,280.8 51.05,238.26 161.68,-34.04 110.62,-280.8 -51.05,-238.26zm8.51 76.58c-68.07,25.52 -25.52,110.62 34.04,85.09 51.05,-25.52 25.52,-110.62 -34.04,-85.09z"/>
    <path class="fil1" d="M56.03 2196.1l0 51.05c17.02,42.55 0,110.62 17.02,161.68 25.53,42.55 93.6,42.55 102.11,-25.53 0,-25.52 -8.51,-136.15 -17.02,-161.67 -8.51,-59.57 -51.06,-76.58 -102.11,-25.53z"/>
    <path class="fil1" d="M762.3 3617.15c34.04,-68.08 -17.02,-93.6 -51.05,-136.15 -25.53,-25.53 -76.58,-110.62 -136.15,-68.08 -51.06,42.55 34.04,110.62 51.05,136.15 42.55,42.55 68.07,85.09 136.15,68.08z"/>
    <path class="fil1" d="M132.61 2510.95c-51.05,17.02 -34.04,59.56 -8.51,153.17 17.02,42.54 34.04,127.64 93.6,93.6 51.06,-17.02 17.02,-102.11 0,-144.66 -8.51,-59.57 -17.02,-127.64 -85.09,-102.11z"/>
    <path class="fil1" d="M379.38 3140.63c-8.51,8.51 -17.02,0 -17.02,25.52 -8.51,17.02 0,34.04 8.51,42.55l85.09 136.15c17.02,25.53 42.55,42.55 76.58,17.02 59.57,-34.04 -8.51,-102.11 -34.04,-136.15 -25.53,-34.04 -59.57,-127.64 -119.13,-85.09z"/>
    <path class="fil1" d="M302.8 3081.07c93.6,8.51 76.58,-59.57 42.55,-119.13 -17.02,-42.55 -42.55,-127.64 -76.58,-136.15 -34.04,0 -59.57,17.02 -59.57,42.55 -17.02,34.04 68.07,178.7 93.6,212.73z"/>
    <path class="fil1" d="M1026.08 3829.88c42.55,-76.58 -25.53,-102.11 -127.64,-170.18 -17.02,-17.02 -51.06,-34.04 -68.08,-17.02 -76.58,59.57 59.57,136.15 119.13,170.19 34.04,25.52 34.04,34.04 76.58,17.02z"/>
   </g>
  </g>
 </g>
</svg>
