<?xml version="1.0" encoding="UTF-8"?>
<!DOCTYPE svg PUBLIC "-//W3C//DTD SVG 1.1//EN" "http://www.w3.org/Graphics/SVG/1.1/DTD/svg11.dtd">
<!-- Creator: CorelDRAW 2020 -->
<svg xmlns="http://www.w3.org/2000/svg" xml:space="preserve" width="50" height="50" version="1.1" style="shape-rendering:geometricPrecision; text-rendering:geometricPrecision; image-rendering:optimizeQuality; fill-rule:evenodd; clip-rule:evenodd"
viewBox="0 0 1201.41 1201.41"
 xmlns:xlink="http://www.w3.org/1999/xlink"
 xmlns:xodm="http://www.corel.com/coreldraw/odm/2003">
 <defs>
  <style type="text/css">
   <![CDATA[
    .fil0 {fill:none}
    .fil1 {fill:#2B2A29}
   ]]>
  </style>
 </defs>
 <g id="Layer_x0020_1">
  <metadata id="CorelCorpID_0Corel-Layer"/>
  <g id="_1123536680">
   <rect class="fil0" x="-0" y="-0" width="1201.41" height="1201.41"/>
   <g>
    <path class="fil1" d="M25.27 584.48l0 32.95c2.35,4.71 4.71,22.36 7.06,28.24 4.71,20 11.77,32.95 23.53,48.25 14.12,21.18 35.3,34.13 29.42,78.84 -5.88,43.54 -5.88,78.84 18.83,117.68 8.24,15.3 20,29.42 32.95,38.83 11.77,10.59 25.89,20 44.72,27.06 56.49,23.54 45.89,31.77 68.25,75.31 23.53,48.25 71.78,82.37 127.09,88.26 57.66,5.88 70.6,-20 118.85,17.65 7.06,4.71 12.95,10.59 20.01,15.3 61.19,36.48 138.86,30.6 189.46,-16.47 41.19,-35.3 68.25,-11.77 120.03,-16.47 42.36,-4.71 76.49,-25.89 96.49,-47.07 38.83,-40.01 36.48,-70.61 54.13,-89.43 27.07,-28.24 54.13,-22.36 89.43,-54.13 23.54,-21.18 44.72,-48.25 51.78,-91.79 4.71,-24.71 2.35,-42.36 -1.18,-65.9 -3.53,-24.71 3.53,-42.36 14.12,-57.66 17.65,-24.71 28.24,-31.77 40.01,-68.25 1.18,-8.24 4.71,-27.07 5.88,-30.59l0 -25.89c-1.18,-4.71 -3.53,-23.54 -5.88,-30.6 -9.41,-31.77 -21.18,-47.07 -38.83,-70.6 -31.77,-41.19 -3.53,-68.25 -14.12,-124.74 -8.24,-44.72 -29.42,-71.78 -54.13,-91.79 -35.3,-31.77 -67.08,-27.07 -89.43,-55.31 -11.77,-15.3 -14.12,-31.77 -23.54,-49.42 -24.71,-47.07 -72.96,-81.2 -131.8,-84.73 -51.78,-3.53 -63.54,21.18 -116.5,-21.18 -15.3,-10.59 -27.06,-18.83 -47.07,-25.89 -16.48,-7.06 -41.19,-11.77 -61.19,-9.41 -47.07,2.35 -70.6,18.83 -102.38,42.36 -41.19,31.77 -68.25,8.24 -118.85,14.12 -42.36,5.88 -75.31,27.07 -95.32,49.42 -40.01,43.54 -30.59,64.72 -52.95,88.26 -15.3,16.47 -22.36,16.47 -45.89,25.89 -31.77,15.3 -58.84,37.66 -76.49,67.08 -44.72,78.84 4.71,125.91 -30.6,175.34 -4.71,7.06 -10.59,12.94 -16.47,20 -25.89,36.48 -23.54,64.72 -29.42,76.49zm563.67 -490.71c-18.83,2.35 -32.95,10.59 -45.89,18.83 -27.06,21.18 -47.07,37.66 -89.43,41.19 -37.66,2.35 -101.2,-28.24 -141.21,42.36 -14.12,23.54 -10.59,44.72 -49.42,80.02 -31.77,28.24 -58.84,27.07 -82.37,47.07 -68.25,58.84 7.06,112.97 -50.6,198.87 -16.47,23.54 -42.36,45.89 -36.48,90.61 7.06,52.95 54.13,62.37 60.01,134.15 1.18,23.54 -4.71,38.83 -4.71,60.01 -1.18,41.19 22.36,69.43 47.07,82.37 14.12,7.06 30.6,11.77 44.72,20 61.19,35.3 60.01,88.26 82.37,111.79 9.41,10.59 20,20 37.66,27.07 52.96,17.65 89.43,-23.54 161.22,23.54 24.71,16.47 45.89,43.54 91.79,36.48 18.83,-2.35 32.95,-10.59 44.72,-20l17.65 -14.12c20,-14.12 45.89,-23.54 71.78,-25.89 38.83,-2.35 100.02,27.06 141.21,-43.54 4.71,-7.06 7.06,-14.12 10.59,-21.18 29.42,-81.2 90.61,-78.84 122.38,-104.73 24.71,-22.36 35.3,-50.6 28.24,-96.49 -17.65,-109.44 69.43,-115.32 57.66,-194.17 -8.24,-52.96 -54.13,-61.19 -60.01,-134.15 -1.18,-23.54 3.53,-37.66 5.88,-58.84 2.35,-38.83 -24.71,-70.61 -47.07,-82.37 -36.48,-18.83 -44.72,-11.77 -81.2,-48.25 -24.71,-27.07 -28.24,-61.19 -45.89,-83.55 -20,-23.54 -50.6,-36.48 -95.32,-29.42 -82.37,12.95 -112.97,-34.13 -141.21,-48.25 -16.47,-8.24 -32.95,-12.94 -54.13,-9.41z"/>
    <path class="fil1" d="M439.49 385.61c-42.36,7.06 -75.31,37.66 -84.73,76.49 -7.06,25.89 -4.71,124.74 -4.71,157.69 0,75.31 -12.95,149.45 56.48,185.93 20,10.59 42.36,15.3 67.08,10.59 44.72,-9.41 75.31,-35.3 84.73,-77.67 7.06,-30.6 4.71,-192.99 3.53,-235.35 0,-29.42 -1.18,-45.89 -12.94,-68.25 -16.47,-27.07 -60.01,-57.66 -109.44,-49.42zm10.59 67.07c-32.95,5.88 -31.77,28.24 -31.77,62.37l0 187.1c0,16.48 1.18,27.07 10.59,36.48 18.83,18.83 51.78,14.12 62.37,-9.41 4.71,-12.94 3.53,-29.42 3.53,-43.54 0,-31.77 0,-62.37 0,-94.14 0,-30.6 0,-62.37 0,-92.96 0,-16.47 -1.18,-25.89 -10.59,-36.48 -8.24,-7.06 -20.01,-11.77 -34.13,-9.41z"/>
    <path class="fil1" d="M792.51 387.96c-22.36,4.71 -25.89,23.54 -34.13,45.89l-115.32 284.78c-4.71,12.94 -20,48.25 -21.18,58.84 -2.35,23.53 17.65,42.36 41.19,36.48 20,-4.71 25.89,-24.71 32.95,-45.89 8.24,-18.83 15.3,-37.66 23.54,-56.48l91.79 -228.29c4.71,-12.94 20,-47.07 21.18,-58.84 2.35,-23.53 -16.48,-42.36 -40.01,-36.48z"/>
    <path class="fil1" d="M648.95 387.96c-28.24,4.71 -28.24,28.24 -28.24,57.66 0,15.3 1.18,23.54 9.41,32.95 17.65,18.83 44.72,12.94 55.31,-7.06 4.71,-11.77 3.53,-27.07 3.53,-40.01 0,-15.3 0,-23.54 -9.41,-32.95 -5.88,-8.24 -16.47,-12.94 -30.6,-10.59z"/>
    <path class="fil1" d="M793.69 711.57c-11.77,2.35 -21.18,10.59 -24.71,18.83 -4.71,10.59 -5.88,60.01 4.71,72.96 5.88,7.06 17.65,12.94 31.77,10.59 31.77,-4.71 27.07,-36.48 27.07,-56.49 1.18,-14.12 0,-25.89 -8.24,-34.13 -5.88,-7.06 -17.65,-14.12 -30.59,-11.77z"/>
   </g>
  </g>
 </g>
</svg>
